<?xml version="1.0" encoding="utf-8"?>
<!-- Generator: Adobe Illustrator 27.9.0, SVG Export Plug-In . SVG Version: 6.00 Build 0)  -->
<svg version="1.1" id="Layer_1" xmlns="http://www.w3.org/2000/svg" xmlns:xlink="http://www.w3.org/1999/xlink" x="0px" y="0px"
	 width="7964.487px" height="800.194px" viewBox="0 0 7964.487 800.194" style="enable-background:new 0 0 7964.487 800.194;"
	 xml:space="preserve">
<g>
	<g>
		<path d="M3621.526,334.211V211.11h-147.019V50.611h-142.188v585.134c0,53.764,13.519,94.737,40.197,121.784
			c26.662,27.07,68.208,40.793,123.493,40.793h125.516V675.221h-91.844c-19.981,0-34.316-4.391-42.613-13.065
			c-7.622-7.936-12.563-27.987-12.563-51.074V334.211H3621.526z"/>
		<polygon points="1651.305,211.094 1504.294,638.874 1357.284,211.094 1207.912,211.094 1420.136,793.287 1588.453,793.287 
			1800.676,211.094 		"/>
		<rect x="2470.098" width="142.188" height="793.28"/>
		<path d="M3100.572,502.748c0,36.857-5.583,68.922-16.594,95.302c-10.931,26.239-26.584,46.353-46.533,59.77
			c-19.95,13.417-44.479,20.224-72.882,20.224c-40.652,0-71.329-13.362-91.169-39.695c-20.044-26.615-30.207-66.954-30.207-119.886
			V211.11h-142.188v323.068c0,50.305,6.289,92.973,18.711,126.802c12.421,33.932,29.485,61.535,50.721,82.026
			c21.22,20.467,46,35.249,73.65,43.953c27.509,8.657,57.089,13.041,87.938,13.041c44.463,0,81.257-8.061,109.331-23.965
			c25.612-14.547,47.067-31.555,63.88-50.627l12.735,67.871h124.795V211.11h-142.188V502.748z"/>
		<path d="M2252.748,241.811c-44.808-24.843-98.015-37.429-158.123-37.429c-59.371,0-112.381,12.586-157.558,37.421
			c-45.232,24.898-80.771,60.061-105.637,104.508c-24.827,44.408-37.413,97.043-37.413,156.437
			c0,58.665,12.586,110.931,37.413,155.339c24.851,44.432,60.398,79.587,105.637,104.484
			c45.177,24.835,98.188,37.421,157.558,37.421c60.107,0,113.314-12.586,158.123-37.429
			c44.855-24.882,80.206-60.037,105.065-104.477c24.835-44.432,37.429-96.698,37.429-155.339
			c0-59.371-12.594-112.005-37.429-156.437C2332.939,301.856,2297.595,266.693,2252.748,241.811z M2177.631,657.788
			c-22.906,14.915-50.831,22.483-82.998,22.483c-31.43,0-59.175-7.567-82.465-22.49c-23.329-14.939-41.625-36.025-54.391-62.68
			c-12.821-26.678-19.33-57.747-19.33-92.353c0-35.32,6.501-66.569,19.33-92.886c12.759-26.294,31.069-47.388,54.422-62.703
			c23.282-15.299,51.019-23.055,82.433-23.055c32.151,0,60.061,7.756,82.974,23.039c22.977,15.323,41.107,36.425,53.897,62.727
			c12.813,26.38,19.314,57.63,19.314,92.879c0,34.528-6.501,65.605-19.314,92.353
			C2218.715,621.763,2200.592,642.85,2177.631,657.788z"/>
		<rect y="195.779" width="147.764" height="597.508"/>
		<path d="M611.145,229.946c0-126.787-103.246-229.938-230.158-229.938H0V127.61h362.873c57.434,0,105.01,45.122,106.061,100.579
			c0.525,27.768-9.896,53.975-29.344,73.792c-19.456,19.824-45.451,30.748-73.196,30.748H225.037c-5.019,0-9.104,4.078-9.104,9.097
			v113.409c0,1.929,0.596,3.772,1.717,5.325l239.835,332.729h175.563L392.656,459.649
			C513.718,453.571,611.145,351.855,611.145,229.946z"/>
		<path d="M1065.507,238.423c-42.565-22.592-93.106-34.041-150.218-34.041c-57.183,0-108.311,12.594-151.967,37.445
			c-43.726,24.874-78.128,60.045-102.242,104.516c-24.09,44.369-36.3,97.372-36.3,157.542c0,58.641,12.398,110.891,36.864,155.307
			c24.521,44.518,59.888,79.493,105.104,103.951C811.878,787.602,866.011,800,927.632,800c48.886,0,92.785-9.159,130.48-27.235
			c37.704-18.122,68.483-42.801,91.491-73.352c21.855-29.038,36.598-61.88,43.812-97.607l0.776-3.811h-141.396l-0.667,2.29
			c-7.787,26.647-22.89,47.702-44.91,62.594c-23.635,16.013-52.666,24.137-86.299,24.137c-28.505,0-54.25-6.109-76.513-18.154
			c-22.153-11.974-39.476-29.101-51.474-50.917c-12.045-21.894-18.899-48.235-20.365-78.136v-4.674h427.105l0.478-2.611
			c1.49-8.195,2.447-16.64,2.862-25.133c0.353-8.273,0.557-16.538,0.557-24.882c-0.761-56.406-13.37-106.022-37.468-147.481
			C1141.91,293.52,1108.064,261.015,1065.507,238.423z M1013.696,348.06c24.294,20.444,39.405,49.498,44.949,86.409H777.476
			c3.215-23.949,11.167-44.691,23.659-61.707c13.104-17.848,29.893-31.869,49.905-41.679c20.036-9.841,42.032-14.837,65.369-14.837
			C955.862,316.245,988.594,326.949,1013.696,348.06z"/>
	</g>
	<g>
		<path d="M4291.822,395.018c72.328-25.104,120.704-79.008,120.704-166.767c0-123.928-90.984-202.937-254.535-202.937h-272.038
			v767.974h279.87c182.207,0,278.718-83.384,278.718-219.519c0-110.799-71.407-163.543-152.487-178.751H4291.822z M3981.312,111.925
			h181.055c99.744,0,154.791,46.069,154.791,123.006c0,76.935-55.968,123.927-154.791,123.927h-181.055V111.925z M4165.591,706.68
			h-184.279V444.546h184.279c114.023,0,181.054,47.224,181.054,133.831C4346.645,657.384,4283.99,706.68,4165.591,706.68z"/>
		<path d="M5724.813,233.779h-90.063v559.509h90.063V233.779z"/>
		<path d="M5680.813,23.241c-32.936,0-58.28,24.186-58.28,58.048c0,33.861,25.344,58.277,58.28,58.277
			c32.944,0,58.047-24.186,58.047-58.277C5738.86,47.197,5713.757,23.241,5680.813,23.241z"/>
		<path d="M7215.379,467.475c-81.312-9.9-140.511-17.497-140.511-78.976c0-51.579,52.751-84.502,130.607-84.502
			s129.456,42.831,136.136,99.704h92.135c-8.752-116.282-100.888-175.458-228.271-176.61
			c-126.231-1.152-219.519,65.854-219.519,167.853c0,116.282,99.735,141.607,225.046,156.809
			c83.384,9.9,144.888,15.426,144.888,85.654c0,51.579-55.976,85.654-134.983,85.654c-93.288,0-151.335-48.349-154.791-113.978
			h-92.144c2.304,122.959,102.047,190.884,246.935,190.884c123.927,0,223.902-64.702,223.902-169.005
			C7444.81,507.083,7342.763,482.909,7215.379,467.475z"/>
		<g>
			<path d="M5903.383,233.777l12.07,75.61c32.918-42.794,89.977-82.296,184.343-82.296c126.188,0,226.04,69.129,226.04,254.569
				v311.628h-89.977V487.146c0-116.312-53.767-177.759-151.424-177.759c-105.339,0-168.981,77.907-168.981,204.094v279.806h-89.977
				v-559.51H5903.383z"/>
		</g>
		<g>
			<path d="M6395.124,513.305c0-170.107,107.552-286.438,265.587-286.438c158.034,0,261.196,99.869,265.586,265.586
				c0,12.072-1.097,25.242-2.195,38.412h-434.596v7.682c3.293,106.454,70.238,181.082,176.692,181.082
				c79.018,0,140.476-41.704,159.133-114.137h91.089c-21.949,111.941-114.136,194.251-243.637,194.251
				C6504.871,799.743,6395.124,684.51,6395.124,513.305z M6829.72,456.237c-8.779-96.577-74.627-150.353-167.912-150.353
				c-82.309,0-158.034,59.263-166.815,150.353H6829.72z"/>
		</g>
		<g>
			<path d="M4522.509,233.779h89.975v306.137c0,116.31,52.669,177.757,145.937,177.757c102.046,0,163.493-77.906,163.493-204.091
				V233.779h89.976v559.508h-77.906l-12.069-74.517c-32.918,41.696-86.684,81.198-178.854,81.198
				c-122.894,0-220.55-69.128-220.55-254.566V233.779z"/>
		</g>
		<path d="M7735.056,467.475c-81.312-9.9-140.511-17.497-140.511-78.976c0-51.579,52.752-84.502,130.607-84.502
			s129.455,42.831,136.135,99.704h92.135c-8.752-116.282-100.888-175.458-228.271-176.61
			c-126.231-1.152-219.519,65.854-219.519,167.853c0,116.282,99.735,141.607,225.046,156.809
			c83.384,9.9,144.887,15.426,144.887,85.654c0,51.579-55.976,85.654-134.983,85.654c-93.288,0-151.335-48.349-154.791-113.978
			h-92.144c2.304,122.959,102.047,190.884,246.935,190.884c123.927,0,223.902-64.702,223.902-169.005
			C7964.487,507.083,7862.439,482.909,7735.056,467.475z"/>
		<path d="M5329.535,467.475c-81.312-9.9-140.511-17.497-140.511-78.976c0-51.579,52.751-84.502,130.607-84.502
			s129.455,42.831,136.135,99.704h92.135c-8.752-116.282-100.888-175.458-228.271-176.61
			c-126.231-1.152-219.519,65.854-219.519,167.853c0,116.282,99.735,141.607,225.046,156.809
			c83.384,9.9,144.887,15.426,144.887,85.654c0,51.579-55.976,85.654-134.983,85.654c-93.288,0-151.335-48.349-154.791-113.978
			h-92.144c2.304,122.959,102.047,190.884,246.935,190.884c123.927,0,223.902-64.702,223.902-169.005
			C5558.966,507.083,5456.918,482.909,5329.535,467.475z"/>
	</g>
</g>
</svg>
