<?xml version="1.0" encoding="UTF-8"?> <svg xmlns="http://www.w3.org/2000/svg" xmlns:xlink="http://www.w3.org/1999/xlink" version="1.1" x="0px" y="0px" viewBox="0 0 272.1 102.9" style="enable-background:new 0 0 272.1 102.9;" xml:space="preserve"> <style type="text/css"> .st0{fill:#BD282D;} .st1{fill:#283963;} .st2{fill:#FFFFFF;} </style> <g id="Layer_1"> <polygon class="st0" points="124,13.1 115.9,13.1 115.9,45.3 156.2,45.3 156.2,37.2 124,37.2 "></polygon> <polygon class="st1" points="148.1,32.7 156.2,32.7 156.2,0.5 115.9,0.5 115.9,8.5 148.1,8.5 "></polygon> </g> <g id="Laag_1"> <g> <path class="st2" d="M0.2,57.5h4.4v20.2h13v3.8H0.2V57.5z"></path> <path class="st2" d="M17,69.5L17,69.5C17,62.7,22.3,57,30,57s12.9,5.6,12.9,12.4v0.1c0,6.8-5.4,12.4-13,12.4 C22.3,81.9,17,76.3,17,69.5z M38.3,69.5L38.3,69.5c0-4.7-3.5-8.6-8.4-8.6c-4.9,0-8.4,3.8-8.4,8.5v0.1c0,4.7,3.5,8.5,8.4,8.5 C34.9,78,38.3,74.2,38.3,69.5z"></path> <path class="st2" d="M45.5,57.5h18.4v3.8h-14v5.2h12.4v3.8H49.9v7.5h14.2v3.8H45.5V57.5z"></path> <path class="st2" d="M116.7,57.5h18.4v3.8h-14v5.2h12.4v3.8H121v7.5h14.2v3.8h-18.6V57.5z"></path> <path class="st2" d="M66.6,57.5h4l13.3,16.6V57.5h4.3v24h-3.7L70.9,64.4v17.1h-4.3V57.5z"></path> <path class="st2" d="M91.9,57.5h9.2c7.8,0,13.2,5.2,13.2,11.9v0.1c0,6.8-5.4,12-13.2,12h-9.2V57.5z M96.3,61.3v16.3h4.9 c5.2,0,8.6-3.4,8.6-8.1v-0.1c0-4.7-3.4-8.2-8.6-8.2H96.3z"></path> <path class="st2" d="M138.1,57.5h10.2c6.3,0,10.1,3.2,10.1,8.3c0,4.3-2.5,6.8-5.9,7.8l6.7,7.9H154l-6.1-7.2h-5.5v7.2h-4.4V57.5z M148.8,70.6c3.1,0,5.2-1.7,5.2-4.8c0-3.1-2.3-4.5-5.6-4.5h-5.9v9.3H148.8z"></path> <path class="st2" d="M158.9,77.6l2.7-3.1c2,1.9,5.1,3.6,8.3,3.6c3.6,0,6-1.3,5.9-3.1l0-0.1c-0.1-1.7-1.2-2.6-6-3.7 c-5.6-1.2-8.8-2.7-9-7.2l0-0.1c-0.2-4.1,3.4-7,8.6-7c3.8,0,6.2,0.8,8.9,2.7l-2.6,3c-2.4-1.6-3.9-2-6.2-2c-2.7,0-4.2,1.3-4.1,2.8 l0,0.1c0.1,1.9,1.3,2.7,6.4,3.8c5.6,1.2,8.5,3.1,8.6,7l0,0.1c0.2,4.5-3.9,7.4-10.6,7.4C165.7,82.1,161.5,80.2,158.9,77.6z"></path> <path class="st2" d="M182.1,57.5h4.4v20.2h13v3.8h-17.4V57.5z"></path> <path class="st2" d="M198.9,69.5L198.9,69.5c0-6.8,5.4-12.5,13-12.5s12.9,5.6,12.9,12.4v0.1c0,6.8-5.4,12.4-13,12.4 C204.2,81.9,198.9,76.3,198.9,69.5z M220.2,69.5L220.2,69.5c0-4.7-3.5-8.6-8.4-8.6c-4.9,0-8.4,3.8-8.4,8.5v0.1 c0,4.7,3.5,8.5,8.4,8.5C216.8,78,220.2,74.2,220.2,69.5z"></path> <path class="st2" d="M226.3,69.5L226.3,69.5c0-6.8,5.4-12.5,13-12.5c7.6,0,12.9,5.6,12.9,12.4v0.1c0,6.8-5.4,12.4-13,12.4 C231.6,81.9,226.3,76.3,226.3,69.5z M247.7,69.5L247.7,69.5c0-4.7-3.5-8.6-8.4-8.6c-4.9,0-8.4,3.8-8.4,8.5v0.1 c0,4.7,3.5,8.5,8.4,8.5C244.3,78,247.7,74.2,247.7,69.5z"></path> <path class="st2" d="M259.6,61.4h-7.9v-3.9h20.1v3.9H264v20.1h-4.4V61.4z"></path> </g> <g> <path class="st2" d="M51.2,100.5c0.7,0,1.4-0.1,2-0.3s1.2-0.5,1.5-0.8v-1.8h-3.2v-2h5.6v4.7c-0.7,0.7-1.6,1.3-2.7,1.7 c-1.1,0.4-2.2,0.6-3.5,0.6c-2.1,0-3.7-0.6-4.8-1.7c-1.1-1.2-1.7-2.8-1.7-5c0-2.1,0.6-3.8,1.7-4.9c1.1-1.1,2.8-1.7,4.9-1.7 c3,0,5,1.1,5.8,3.4l-2.5,0.8c-0.3-0.7-0.7-1.1-1.3-1.5c-0.6-0.3-1.2-0.5-2-0.5c-1.3,0-2.2,0.4-2.9,1.2c-0.7,0.8-1,1.9-1,3.3 c0,1.5,0.3,2.6,1,3.4C49.1,100.1,50,100.5,51.2,100.5z"></path> <path class="st2" d="M59.7,102.4V89.5h2.7v10.8h6.9v2.1H59.7z"></path> <path class="st2" d="M82.6,95.9c0,1.3-0.3,2.5-0.8,3.5c-0.5,1-1.3,1.8-2.3,2.3c-1,0.5-2.1,0.8-3.5,0.8c-2,0-3.6-0.6-4.8-1.8 c-1.2-1.2-1.7-2.8-1.7-4.9c0-2.1,0.6-3.7,1.7-4.8c1.1-1.2,2.7-1.7,4.8-1.7s3.6,0.6,4.8,1.8C82,92.2,82.6,93.8,82.6,95.9z M79.9,95.9c0-1.4-0.3-2.5-1-3.3c-0.7-0.8-1.6-1.2-2.8-1.2c-1.2,0-2.1,0.4-2.8,1.2s-1,1.9-1,3.3c0,1.4,0.3,2.5,1,3.4 c0.7,0.8,1.6,1.2,2.8,1.2c1.2,0,2.1-0.4,2.8-1.2C79.5,98.5,79.9,97.3,79.9,95.9z"></path> <path class="st2" d="M96.1,98.7c0,1.2-0.4,2.1-1.3,2.7c-0.9,0.6-2.1,1-3.7,1h-6.5V89.5h5.9c1.6,0,2.8,0.3,3.6,0.8 c0.8,0.5,1.2,1.4,1.2,2.4c0,0.7-0.2,1.4-0.6,1.9c-0.4,0.5-1,0.8-1.9,1c1,0.1,1.8,0.5,2.4,1C95.8,97.1,96.1,97.8,96.1,98.7z M92.6,93.1c0-0.6-0.2-1-0.6-1.2c-0.4-0.2-0.9-0.4-1.6-0.4h-3.1v3.2h3.1c0.8,0,1.3-0.1,1.7-0.4S92.6,93.6,92.6,93.1z M93.4,98.5 c0-1.2-0.9-1.8-2.6-1.8h-3.4v3.7h3.5c0.9,0,1.5-0.2,1.9-0.5C93.2,99.6,93.4,99.1,93.4,98.5z"></path> <path class="st2" d="M107.3,102.4l-1.1-3.3h-4.9l-1.1,3.3h-2.7l4.7-12.9h3.2l4.7,12.9H107.3z M103.7,91.5l-0.1,0.2 c-0.1,0.2-0.1,0.5-0.2,0.8c-0.1,0.3-0.6,1.8-1.6,4.6h3.7l-1.3-3.7l-0.4-1.2L103.7,91.5z"></path> <path class="st2" d="M111.8,102.4V89.5h2.7v10.8h6.9v2.1H111.8z"></path> <path class="st2" d="M128.1,102.4V89.5h2.7v10.8h6.9v2.1H128.1z"></path> <path class="st2" d="M151.8,95.9c0,1.3-0.3,2.5-0.8,3.5c-0.5,1-1.3,1.8-2.3,2.3c-1,0.5-2.1,0.8-3.5,0.8c-2,0-3.6-0.6-4.8-1.8 c-1.2-1.2-1.7-2.8-1.7-4.9c0-2.1,0.6-3.7,1.7-4.8s2.7-1.7,4.8-1.7c2,0,3.6,0.6,4.8,1.8C151.2,92.2,151.8,93.8,151.8,95.9z M149,95.9c0-1.4-0.3-2.5-1-3.3c-0.7-0.8-1.6-1.2-2.8-1.2c-1.2,0-2.1,0.4-2.8,1.2s-1,1.9-1,3.3c0,1.4,0.3,2.5,1,3.4 c0.7,0.8,1.6,1.2,2.8,1.2c1.2,0,2.1-0.4,2.8-1.2C148.7,98.5,149,97.3,149,95.9z"></path> <path class="st2" d="M160,100.5c0.7,0,1.4-0.1,2-0.3s1.2-0.5,1.5-0.8v-1.8h-3.2v-2h5.6v4.7c-0.7,0.7-1.6,1.3-2.7,1.7 c-1.1,0.4-2.2,0.6-3.5,0.6c-2.1,0-3.7-0.6-4.8-1.7c-1.1-1.2-1.7-2.8-1.7-5c0-2.1,0.6-3.8,1.7-4.9c1.1-1.1,2.8-1.7,4.9-1.7 c3,0,5,1.1,5.8,3.4l-2.5,0.8c-0.3-0.7-0.7-1.1-1.3-1.5s-1.2-0.5-2-0.5c-1.3,0-2.2,0.4-2.9,1.2c-0.7,0.8-1,1.9-1,3.3 c0,1.5,0.3,2.6,1,3.4C157.8,100.1,158.7,100.5,160,100.5z"></path> <path class="st2" d="M168.8,102.4V89.5h2.7v12.9H168.8z"></path> <path class="st2" d="M184.9,98.7c0,1.3-0.5,2.2-1.4,2.9c-0.9,0.7-2.3,1-4.1,1c-1.7,0-3-0.3-3.9-0.9c-0.9-0.6-1.5-1.5-1.8-2.7 l2.6-0.4c0.2,0.7,0.5,1.2,1,1.5c0.5,0.3,1.2,0.5,2.1,0.5c1.9,0,2.8-0.6,2.8-1.7c0-0.4-0.1-0.7-0.3-0.9s-0.5-0.4-0.9-0.6 c-0.4-0.2-1.2-0.4-2.3-0.6c-1-0.2-1.6-0.4-2-0.5s-0.7-0.3-1-0.5s-0.6-0.4-0.8-0.7s-0.4-0.6-0.5-0.9s-0.2-0.8-0.2-1.2 c0-1.2,0.4-2.1,1.3-2.7s2.2-0.9,3.8-0.9c1.6,0,2.8,0.3,3.6,0.8s1.3,1.3,1.6,2.5l-2.6,0.4c-0.1-0.6-0.4-1-0.8-1.3 c-0.4-0.3-1-0.4-1.8-0.4c-1.6,0-2.5,0.5-2.5,1.5c0,0.3,0.1,0.6,0.3,0.8c0.2,0.2,0.4,0.4,0.8,0.5c0.3,0.2,1,0.3,2.1,0.6 c1.2,0.3,2.1,0.5,2.7,0.7c0.5,0.2,1,0.5,1.3,0.8c0.3,0.3,0.5,0.7,0.7,1.1S184.9,98.1,184.9,98.7z"></path> <path class="st2" d="M192.4,91.6v10.8h-2.7V91.6h-4.2v-2.1h11.1v2.1H192.4z"></path> <path class="st2" d="M198.4,102.4V89.5h2.7v12.9H198.4z"></path> <path class="st2" d="M209.6,100.4c1.6,0,2.8-0.8,3.4-2.5l2.4,0.9c-0.5,1.2-1.3,2.2-2.2,2.8c-1,0.6-2.2,0.9-3.5,0.9 c-2.1,0-3.7-0.6-4.8-1.8c-1.1-1.2-1.7-2.8-1.7-4.9c0-2.1,0.5-3.8,1.6-4.9s2.7-1.7,4.8-1.7c1.5,0,2.8,0.3,3.7,0.9 c1,0.6,1.6,1.5,2,2.7l-2.4,0.7c-0.2-0.6-0.6-1.2-1.2-1.5s-1.3-0.6-2.1-0.6c-1.2,0-2.1,0.4-2.8,1.1s-0.9,1.9-0.9,3.3 c0,1.5,0.3,2.6,1,3.4C207.5,100.1,208.4,100.4,209.6,100.4z"></path> <path class="st2" d="M227.7,98.7c0,1.3-0.5,2.2-1.4,2.9s-2.3,1-4.1,1c-1.7,0-3-0.3-3.9-0.9c-0.9-0.6-1.5-1.5-1.8-2.7l2.6-0.4 c0.2,0.7,0.5,1.2,1,1.5s1.2,0.5,2.1,0.5c1.9,0,2.8-0.6,2.8-1.7c0-0.4-0.1-0.7-0.3-0.9s-0.5-0.4-0.9-0.6s-1.2-0.4-2.3-0.6 c-1-0.2-1.6-0.4-2-0.5s-0.7-0.3-1-0.5s-0.6-0.4-0.8-0.7s-0.4-0.6-0.5-0.9c-0.1-0.4-0.2-0.8-0.2-1.2c0-1.2,0.4-2.1,1.3-2.7 c0.9-0.6,2.2-0.9,3.8-0.9c1.6,0,2.8,0.3,3.6,0.8s1.3,1.3,1.6,2.5l-2.6,0.4c-0.1-0.6-0.4-1-0.8-1.3c-0.4-0.3-1-0.4-1.8-0.4 c-1.6,0-2.5,0.5-2.5,1.5c0,0.3,0.1,0.6,0.3,0.8c0.2,0.2,0.4,0.4,0.8,0.5c0.3,0.2,1,0.3,2.1,0.6c1.2,0.3,2.1,0.5,2.7,0.7 c0.5,0.2,1,0.5,1.3,0.8c0.3,0.3,0.5,0.7,0.7,1.1S227.7,98.1,227.7,98.7z"></path> </g> </g> </svg> 